<mxfile host="app.diagrams.net" agent="Mozilla/5.0 (Windows NT 10.0; Win64; x64; rv:128.0) Gecko/20100101 Firefox/128.0" scale="3" border="0" version="24.7.5">
  <diagram name="Page-1" id="hsk624WQB-zvpRk25Bit">
    <mxGraphModel dx="1210" dy="612" grid="1" gridSize="10" guides="1" tooltips="1" connect="1" arrows="1" fold="1" page="1" pageScale="1" pageWidth="827" pageHeight="1169" math="0" shadow="0">
      <root>
        <mxCell id="0" />
        <mxCell id="1" parent="0" />
        <mxCell id="v9cHNtUJd11W1hqlJB93-28" value="" style="endArrow=none;html=1;rounded=0;strokeWidth=3;" parent="1" edge="1">
          <mxGeometry width="50" height="50" relative="1" as="geometry">
            <mxPoint x="508" y="612.5" as="sourcePoint" />
            <mxPoint x="458" y="542.5" as="targetPoint" />
          </mxGeometry>
        </mxCell>
        <mxCell id="v9cHNtUJd11W1hqlJB93-29" value="" style="endArrow=none;html=1;rounded=0;strokeWidth=3;" parent="1" edge="1">
          <mxGeometry width="50" height="50" relative="1" as="geometry">
            <mxPoint x="373" y="612.5" as="sourcePoint" />
            <mxPoint x="423" y="542.5" as="targetPoint" />
          </mxGeometry>
        </mxCell>
        <mxCell id="v9cHNtUJd11W1hqlJB93-6" value="" style="ellipse;whiteSpace=wrap;html=1;aspect=fixed;fillColor=#f0db4f;strokeWidth=3;" parent="1" vertex="1">
          <mxGeometry x="293" y="585.36" width="135" height="135" as="geometry" />
        </mxCell>
        <mxCell id="v9cHNtUJd11W1hqlJB93-1" value="" style="ellipse;whiteSpace=wrap;html=1;aspect=fixed;fillColor=#00ADD8;gradientColor=none;strokeWidth=3;" parent="1" vertex="1">
          <mxGeometry x="452" y="585" width="135" height="135" as="geometry" />
        </mxCell>
        <mxCell id="5-ozF8vy6rtWnurFYdc3-2" value="" style="verticalAlign=top;verticalLabelPosition=bottom;labelPosition=center;align=center;html=1;outlineConnect=0;fillColor=default;strokeColor=default;gradientDirection=north;strokeWidth=2;shape=mxgraph.networks.pc;shadow=0;" parent="1" vertex="1">
          <mxGeometry x="469.5" y="617.86" width="100" height="70" as="geometry" />
        </mxCell>
        <mxCell id="5-ozF8vy6rtWnurFYdc3-4" value="" style="verticalAlign=top;verticalLabelPosition=bottom;labelPosition=center;align=center;html=1;outlineConnect=0;fillColor=default;strokeColor=default;gradientDirection=north;strokeWidth=2;shape=mxgraph.networks.mobile;aspect=fixed;" parent="1" vertex="1">
          <mxGeometry x="366" y="591" width="50" height="100" as="geometry" />
        </mxCell>
        <mxCell id="5-ozF8vy6rtWnurFYdc3-5" value="" style="verticalAlign=top;verticalLabelPosition=bottom;labelPosition=center;align=center;html=1;outlineConnect=0;fillColor=default;strokeColor=default;gradientDirection=north;strokeWidth=2;shape=mxgraph.networks.laptop;" parent="1" vertex="1">
          <mxGeometry x="287" y="612.5" width="100" height="55" as="geometry" />
        </mxCell>
        <mxCell id="5-ozF8vy6rtWnurFYdc3-3" value="" style="verticalAlign=top;verticalLabelPosition=bottom;labelPosition=center;align=center;html=1;outlineConnect=0;fillColor=default;strokeColor=default;gradientDirection=north;strokeWidth=2;shape=mxgraph.networks.gamepad;" parent="1" vertex="1">
          <mxGeometry x="307" y="656.14" width="100" height="70" as="geometry" />
        </mxCell>
        <mxCell id="v9cHNtUJd11W1hqlJB93-7" value="" style="ellipse;whiteSpace=wrap;html=1;aspect=fixed;fillColor=#f0db4f;gradientColor=#00ADD8;gradientDirection=east;strokeWidth=3;" parent="1" vertex="1">
          <mxGeometry x="373" y="450" width="135" height="135" as="geometry" />
        </mxCell>
        <mxCell id="v9cHNtUJd11W1hqlJB93-8" value="" style="sketch=0;outlineConnect=0;fontColor=#232F3E;gradientColor=none;fillColor=#000000;strokeColor=none;dashed=0;verticalLabelPosition=bottom;verticalAlign=top;align=center;html=1;fontSize=12;fontStyle=0;aspect=fixed;pointerEvents=1;shape=mxgraph.aws4.cloud_digital_interface;" parent="1" vertex="1">
          <mxGeometry x="401.5" y="478.5" width="78" height="78" as="geometry" />
        </mxCell>
      </root>
    </mxGraphModel>
  </diagram>
</mxfile>
